<svg width="52" height="52" viewBox="0 0 52 52" fill="none" xmlns="http://www.w3.org/2000/svg">
<circle cx="26" cy="26" r="26" fill="#CDD5E0"/>
<path d="M26 16C24.0605 16.0037 22.1639 16.5713 20.5412 17.6337C18.9186 18.6962 17.6399 20.2075 16.8609 21.9838C16.082 23.76 15.8364 25.7244 16.154 27.6378C16.4717 29.5511 17.3389 31.3308 18.65 32.76C19.5864 33.775 20.7229 34.5851 21.9879 35.1392C23.2529 35.6933 24.619 35.9793 26 35.9793C27.381 35.9793 28.7471 35.6933 30.0121 35.1392C31.2771 34.5851 32.4136 33.775 33.35 32.76C34.6611 31.3308 35.5283 29.5511 35.846 27.6378C36.1636 25.7244 35.918 23.76 35.1391 21.9838C34.3601 20.2075 33.0814 18.6962 31.4588 17.6337C29.8361 16.5713 27.9395 16.0037 26 16ZM26 34C23.9285 33.9969 21.9389 33.1903 20.45 31.75C20.902 30.6495 21.671 29.7083 22.6593 29.0459C23.6475 28.3835 24.8103 28.0298 26 28.0298C27.1897 28.0298 28.3525 28.3835 29.3407 29.0459C30.329 29.7083 31.098 30.6495 31.55 31.75C30.0611 33.1903 28.0715 33.9969 26 34ZM24 24C24 23.6044 24.1173 23.2178 24.3371 22.8889C24.5568 22.56 24.8692 22.3036 25.2346 22.1522C25.6001 22.0009 26.0022 21.9613 26.3902 22.0384C26.7781 22.1156 27.1345 22.3061 27.4142 22.5858C27.6939 22.8655 27.8844 23.2219 27.9616 23.6098C28.0387 23.9978 27.9991 24.3999 27.8478 24.7654C27.6964 25.1308 27.44 25.4432 27.1111 25.6629C26.7822 25.8827 26.3956 26 26 26C25.4696 26 24.9609 25.7893 24.5858 25.4142C24.2107 25.0391 24 24.5304 24 24ZM32.91 30C32.0165 28.4718 30.6414 27.283 29 26.62C29.5092 26.0427 29.8409 25.3307 29.9555 24.5694C30.07 23.8082 29.9625 23.0301 29.6458 22.3285C29.329 21.6269 28.8166 21.0316 28.1699 20.614C27.5232 20.1964 26.7698 19.9742 26 19.9742C25.2302 19.9742 24.4768 20.1964 23.8301 20.614C23.1834 21.0316 22.671 21.6269 22.3542 22.3285C22.0375 23.0301 21.93 23.8082 22.0445 24.5694C22.1591 25.3307 22.4908 26.0427 23 26.62C21.3586 27.283 19.9835 28.4718 19.09 30C18.3779 28.7871 18.0017 27.4065 18 26C18 23.8783 18.8429 21.8434 20.3431 20.3431C21.8434 18.8429 23.8783 18 26 18C28.1217 18 30.1566 18.8429 31.6569 20.3431C33.1571 21.8434 34 23.8783 34 26C33.9983 27.4065 33.6221 28.7871 32.91 30Z" fill="#20293A"/>
</svg>
